<svg width="32" height="32" viewBox="0 0 32 32" fill="none" xmlns="http://www.w3.org/2000/svg">
<g clip-path="url(#clip0_145_652)">
<path d="M28.6665 5.3335H25.7776V7.11127H28.4442V26.6668H3.55535V7.11127H6.22202V5.3335H3.33313C3.12534 5.33697 2.92027 5.38134 2.72963 5.46408C2.53899 5.54682 2.36652 5.6663 2.22207 5.81571C2.07762 5.96511 1.96401 6.14151 1.88775 6.33483C1.81148 6.52815 1.77404 6.7346 1.77757 6.94238V26.8357C1.77404 27.0435 1.81148 27.25 1.88775 27.4433C1.96401 27.6366 2.07762 27.813 2.22207 27.9624C2.36652 28.1118 2.53899 28.2313 2.72963 28.314C2.92027 28.3968 3.12534 28.4411 3.33313 28.4446H28.6665C28.8743 28.4411 29.0793 28.3968 29.27 28.314C29.4606 28.2313 29.6331 28.1118 29.7775 27.9624C29.922 27.813 30.0356 27.6366 30.1118 27.4433C30.1881 27.25 30.2255 27.0435 30.222 26.8357V6.94238C30.2255 6.7346 30.1881 6.52815 30.1118 6.33483C30.0356 6.14151 29.922 5.96511 29.7775 5.81571C29.6331 5.6663 29.4606 5.54682 29.27 5.46408C29.0793 5.38134 28.8743 5.33697 28.6665 5.3335Z" fill="#005B7C"/>
<path d="M7.11133 12.4443H8.88911V14.2221H7.11133V12.4443Z" fill="#005B7C"/>
<path d="M12.4443 12.4443H14.2221V14.2221H12.4443V12.4443Z" fill="#005B7C"/>
<path d="M17.7778 12.4443H19.5556V14.2221H17.7778V12.4443Z" fill="#005B7C"/>
<path d="M23.1113 12.4443H24.8891V14.2221H23.1113V12.4443Z" fill="#005B7C"/>
<path d="M7.11133 16.8887H8.88911V18.6664H7.11133V16.8887Z" fill="#005B7C"/>
<path d="M12.4443 16.8887H14.2221V18.6664H12.4443V16.8887Z" fill="#005B7C"/>
<path d="M17.7778 16.8887H19.5556V18.6664H17.7778V16.8887Z" fill="#005B7C"/>
<path d="M23.1113 16.8887H24.8891V18.6664H23.1113V16.8887Z" fill="#005B7C"/>
<path d="M7.11133 21.3335H8.88911V23.1113H7.11133V21.3335Z" fill="#005B7C"/>
<path d="M12.4443 21.3335H14.2221V23.1113H12.4443V21.3335Z" fill="#005B7C"/>
<path d="M17.7778 21.3335H19.5556V23.1113H17.7778V21.3335Z" fill="#005B7C"/>
<path d="M23.1113 21.3335H24.8891V23.1113H23.1113V21.3335Z" fill="#005B7C"/>
<path d="M8.88889 8.88894C9.12464 8.88894 9.35073 8.79529 9.51743 8.62859C9.68413 8.46189 9.77778 8.2358 9.77778 8.00005V2.66672C9.77778 2.43097 9.68413 2.20488 9.51743 2.03818C9.35073 1.87148 9.12464 1.77783 8.88889 1.77783C8.65314 1.77783 8.42705 1.87148 8.26035 2.03818C8.09365 2.20488 8 2.43097 8 2.66672V8.00005C8 8.2358 8.09365 8.46189 8.26035 8.62859C8.42705 8.79529 8.65314 8.88894 8.88889 8.88894Z" fill="#005B7C"/>
<path d="M23.1111 8.88894C23.3468 8.88894 23.5729 8.79529 23.7396 8.62859C23.9063 8.46189 23.9999 8.2358 23.9999 8.00005V2.66672C23.9999 2.43097 23.9063 2.20488 23.7396 2.03818C23.5729 1.87148 23.3468 1.77783 23.1111 1.77783C22.8753 1.77783 22.6492 1.87148 22.4825 2.03818C22.3158 2.20488 22.2222 2.43097 22.2222 2.66672V8.00005C22.2222 8.2358 22.3158 8.46189 22.4825 8.62859C22.6492 8.79529 22.8753 8.88894 23.1111 8.88894Z" fill="#005B7C"/>
<path d="M11.5557 5.3335H20.4446V7.11127H11.5557V5.3335Z" fill="#005B7C"/>
</g>
<defs>
<clipPath id="clip0_145_652">
<rect width="32" height="32" fill="white"/>
</clipPath>
</defs>
</svg>
