<svg width="20" height="32" viewBox="0 0 20 32" fill="none" xmlns="http://www.w3.org/2000/svg">
<path d="M18.0003 -1.01723e-05C18.2816 -1.01723e-05 18.542 0.0520732 18.7816 0.15624C19.0212 0.260406 19.2295 0.401031 19.4066 0.578115C19.5837 0.755198 19.7295 0.96874 19.8441 1.21874C19.9587 1.46874 20.0107 1.72916 20.0003 1.99999V30C20.0003 30.2812 19.9482 30.5417 19.8441 30.7812C19.7399 31.0208 19.5993 31.2292 19.4222 31.4062C19.2451 31.5833 19.0316 31.7292 18.7816 31.8437C18.5316 31.9583 18.2712 32.0104 18.0003 32H2.00033C1.71908 32 1.45866 31.9479 1.21908 31.8437C0.979492 31.7396 0.771159 31.5989 0.594076 31.4219C0.416992 31.2448 0.271159 31.0312 0.156576 30.7812C0.0419922 30.5312 -0.0100911 30.2708 0.000325521 30V1.99999C0.000325521 1.71874 0.0524089 1.45832 0.156576 1.21874C0.260742 0.979157 0.401367 0.770823 0.578451 0.59374C0.755534 0.416656 0.969076 0.270823 1.21908 0.15624C1.46908 0.0416565 1.72949 -0.0104268 2.00033 -1.01723e-05H18.0003ZM18.0003 1.99999H2.00033V30H18.0003V1.99999ZM8.00033 26H12.0003V28H8.00033V26Z" fill="#005B7C"/>
</svg>
